<svg xmlns="http://www.w3.org/2000/svg" viewBox="0 0 64 64" role="img" aria-label="Words Explore">
  <defs>
    <linearGradient id="bg" x1="10" y1="5" x2="56" y2="60" gradientUnits="userSpaceOnUse">
      <stop offset="0" stop-color="#0f172a"/>
      <stop offset="0.52" stop-color="#102a43"/>
      <stop offset="1" stop-color="#0f3d36"/>
    </linearGradient>
    <radialGradient id="glow" cx="21" cy="15" r="34" gradientUnits="userSpaceOnUse">
      <stop offset="0" stop-color="#fbbf24" stop-opacity="0.52"/>
      <stop offset="0.42" stop-color="#22c55e" stop-opacity="0.16"/>
      <stop offset="1" stop-color="#22c55e" stop-opacity="0"/>
    </radialGradient>
    <linearGradient id="pageLeft" x1="14" y1="20" x2="31" y2="49" gradientUnits="userSpaceOnUse">
      <stop offset="0" stop-color="#ffffff"/>
      <stop offset="1" stop-color="#dff7eb"/>
    </linearGradient>
    <linearGradient id="pageRight" x1="50" y1="20" x2="33" y2="49" gradientUnits="userSpaceOnUse">
      <stop offset="0" stop-color="#ffffff"/>
      <stop offset="1" stop-color="#e9f1ff"/>
    </linearGradient>
    <filter id="shadow" x="-20%" y="-20%" width="140%" height="150%">
      <feDropShadow dx="0" dy="3" stdDeviation="3" flood-color="#020617" flood-opacity="0.35"/>
    </filter>
  </defs>

  <rect width="64" height="64" rx="15" fill="url(#bg)"/>
  <rect width="64" height="64" rx="15" fill="url(#glow)"/>
  <path d="M13 49c5-3 12-4 19 0 7-4 14-3 19 0" fill="none" stroke="#0b1220" stroke-opacity="0.34" stroke-linecap="round" stroke-width="5"/>

  <g filter="url(#shadow)">
    <path d="M15 18c5-2 11-1 17 3v28c-5-4-11-6-17-4V18Z" fill="url(#pageLeft)"/>
    <path d="M49 18c-5-2-11-1-17 3v28c5-4 11-6 17-4V18Z" fill="url(#pageRight)"/>
    <path d="M32 21v28" stroke="#0f766e" stroke-linecap="round" stroke-width="2.4"/>
    <path d="M20 27h7M20 34h7M20 41h5" stroke="#0f766e" stroke-linecap="round" stroke-width="2.5"/>
    <path d="M37 28h7M37 35h7M39 42h5" stroke="#2563eb" stroke-linecap="round" stroke-width="2.5"/>
  </g>

  <path d="M48 9l1.8 4.2L54 15l-4.2 1.8L48 21l-1.8-4.2L42 15l4.2-1.8L48 9Z" fill="#fbbf24"/>
  <path d="M18 11l1 2.4 2.4 1-2.4 1-1 2.4-1-2.4-2.4-1 2.4-1L18 11Z" fill="#7dd3fc"/>
</svg>
